<svg width="200" height="200" viewBox="0 0 200 200" fill="none" xmlns="http://www.w3.org/2000/svg">
  <rect width="200" height="200" fill="#272729"/>
  <path d="M80 100C80 89.544 88.544 81 99 81H101C111.456 81 120 89.544 120 100V110C120 120.456 111.456 129 101 129H99C88.8954 129 80 120.456 80 110V100ZM100 91C94.477 91 90 96.477 90 102C90 107.523 94.477 112 100 112C105.523 112 110 107.523 110 102C110 96.477 105.523 91 100 91Z" fill="#818384"/>
  <path d="M60 140H140V150H60V140Z" fill="#818384"/>
  <path d="M60 155H120V165H60V155Z" fill="#818384"/>
</svg> 